<svg xmlns="http://www.w3.org/2000/svg" width="70" height="70" viewBox="0 0 70 70">
  <g id="Group_3" data-name="Group 3" transform="translate(-708 -636)">
    <g id="Group_2" data-name="Group 2" transform="translate(44 83)">
      <path id="Path_1" data-name="Path 1" d="M63.9,34.09a3.9,3.9,0,0,0-6.069-2.231,4.607,4.607,0,0,1-2.677.948H52.844a17.96,17.96,0,0,0-4-9.292l.223-.223a15.383,15.383,0,0,1,4.15-2.789,2.744,2.744,0,0,0,.714-.513,2.8,2.8,0,0,0-.6-4.406,2.755,2.755,0,0,0-2.7,0A2.822,2.822,0,0,0,49.509,16.7a17.134,17.134,0,0,1-2.9,4.306l-.067.067a17.96,17.96,0,0,0-9.315-3.915V14.926a4.819,4.819,0,0,1,.959-2.767,3.909,3.909,0,1,0-6.37,0,4.607,4.607,0,0,1,.948,2.677v2.231a17.96,17.96,0,0,0-9.281,4l-.234-.234a15.383,15.383,0,0,1-2.755-4.061,2.744,2.744,0,0,0-.513-.714,2.8,2.8,0,0,0-4.406.6,2.755,2.755,0,0,0,0,2.7,2.822,2.822,0,0,0,1.116,1.116A17.135,17.135,0,0,1,21,23.381l.078.078a17.96,17.96,0,0,0-3.927,9.315H14.916a4.607,4.607,0,0,1-2.677-.948,3.9,3.9,0,1,0,0,6.37,4.819,4.819,0,0,1,2.677-.959h2.231a17.96,17.96,0,0,0,4,9.292l-.067.067a17.135,17.135,0,0,1-4.351,2.912,2.822,2.822,0,0,0-1.116,1.116,2.755,2.755,0,0,0,0,2.7,2.8,2.8,0,0,0,4.406.6,2.733,2.733,0,0,0,.513-.714,15.383,15.383,0,0,1,2.722-4.105l.223-.223a17.96,17.96,0,0,0,9.281,3.971v2.231a4.607,4.607,0,0,1-.948,2.677,3.9,3.9,0,1,0,6.37,0,4.819,4.819,0,0,1-.959-2.677V52.853a17.96,17.96,0,0,0,9.292-4.016l.067.067A17.146,17.146,0,0,1,49.5,53.255a2.822,2.822,0,0,0,1.116,1.116,2.755,2.755,0,0,0,2.7,0,2.8,2.8,0,0,0,.647-4.384,2.744,2.744,0,0,0-.714-.513,15.383,15.383,0,0,1-4.105-2.722l-.223-.223a17.96,17.96,0,0,0,3.927-9.292h2.231a4.819,4.819,0,0,1,2.767.959,3.871,3.871,0,0,0,2.231.714A3.916,3.916,0,0,0,63.9,34.09Z" transform="translate(664 553)" fill="#48ac8e"/>
      <path id="Path_6" data-name="Path 6" d="M12.29,0A12.29,12.29,0,1,1,0,12.29,12.29,12.29,0,0,1,12.29,0Z" transform="translate(686.71 575.71)" fill="#58c3a2"/>
      <circle id="Ellipse_2" data-name="Ellipse 2" cx="1.77" cy="1.77" r="1.77" transform="translate(697.23 578.063)" fill="#48ac8e"/>
      <circle id="Ellipse_3" data-name="Ellipse 3" cx="2.2" cy="2.2" r="2.2" transform="translate(703.8 587.748)" fill="#48ac8e"/>
      <path id="Path_3" data-name="Path 3" d="M19.71,32A12.29,12.29,0,0,0,37.8,42.84,52.94,52.94,0,0,1,25.58,21.53,12.27,12.27,0,0,0,19.71,32Z" transform="translate(666.576 556.133)" fill="#48ac8e"/>
      <path id="Path_7" data-name="Path 7" d="M4.32,0A4.32,4.32,0,1,1,0,4.32,4.32,4.32,0,0,1,4.32,0Z" transform="translate(691.1 585.62)" fill="#48ac8e"/>
      <path id="Path_4" data-name="Path 4" d="M28.63,29.45a4.31,4.31,0,1,0,3.78,6.63,52.61,52.61,0,0,1-3.78-6.63Z" transform="translate(666.619 556.191)" fill="#168e6a"/>
      <path id="Path_5" data-name="Path 5" d="M42.11,25A12.3,12.3,0,1,1,32,19.71" transform="translate(667 556.002)" fill="none" stroke="#168e6a" stroke-linecap="round" stroke-linejoin="round" stroke-width="1"/>
      <rect id="Rectangle_1" data-name="Rectangle 1" width="70" height="70" transform="translate(664 553)" fill="none"/>
    </g>
  </g>
</svg>
